:FULLY-SPECIFIED
:FORCE-ALL-JOINTS-BE-3DOF
:DEGREES
442
root 1.58464 15.2715 -9.05161 5.51984 5.77613 -14.0813
lfemur -48.1617 17.4916 1.76722
ltibia 63.9521 -0 0
lfoot -23.6408 -6.33078 -0.047215
ltoes -10.1774 0 0
rfemur -12.2832 1.43678 7.34819
rtibia 33.8928 -0 0
rfoot -14.4646 -12.7441 -0.133762
rtoes -54.8612 0 0
lowerback 5.14048 0.96836 5.85513
upperback 1.01897 1.63619 1.27947
thorax -1.70227 0.790539 -2.06015
lowerneck -6.95639 0.221871 5.83306
upperneck 1.4003 -0.205142 -0.0839613
head 1.63584 -0.0535628 -1.01385
lclavicle -9.93923e-16 1.59028e-15 0
lhumerus -40.6283 -27.5628 98.5626
lradius 53.2851 -0 0
lwrist 7.02372 0 0
lhand -23.0426 -3.60174 0.15278
lfingers 7.12502 -0 0
lthumb 3.40089 26.2932 0.143179
rclavicle -9.93923e-16 1.59028e-15 0
rhumerus -48.769 -2.35158 -88.5923
rradius 67.4498 -0 0
rwrist 12.39 0 0
rhand -30.6341 -26.719 0.0853241
rfingers 7.12502 -0 0
rthumb -3.92889 -56.6153 0.0787328
443
root 1.53941 15.2752 -9.00901 5.59284 7.45157 -14.2568
lfemur -49.47 18.6887 0.897421
ltibia 64.1015 -0 0
lfoot -22.8132 -6.19577 -0.0336968
ltoes -8.95126 0 0
rfemur -11.7549 -0.505137 8.10978
rtibia 34.1725 -0 0
rfoot -14.6081 -13.6593 -0.157483
rtoes -54.2116 0 0
lowerback 5.10864 1.01816 5.93252
upperback 0.983653 1.70733 1.3251
thorax -1.71596 0.824877 -2.06027
lowerneck -6.96227 0.0182272 5.61464
upperneck 1.09785 -0.452621 -0.0600691
head 1.52871 -0.184531 -0.974857
lclavicle -9.93923e-16 1.59028e-15 0
lhumerus -40.5135 -27.164 98.7004
lradius 53.4369 -0 0
lwrist 6.73156 0 0
lhand -23.8534 -4.06626 0.144381
lfingers 7.12502 -0 0
lthumb 2.61812 25.8448 0.135397
rclavicle -9.93923e-16 1.59028e-15 0
rhumerus -48.5561 -2.22845 -88.5382
rradius 67.1962 -0 0
rwrist 12.3104 0 0
rhand -29.8252 -26.1957 0.082071
rfingers 7.12502 -0 0
rthumb -3.14785 -56.1079 0.075798
444
root 1.50172 15.2816 -8.96529 5.65262 9.13281 -14.4083
lfemur -50.7342 19.7919 -0.0339745
ltibia 64.2082 -0 0
lfoot -22.012 -6.04219 -0.0219045
ltoes -7.70524 0 0
rfemur -11.2783 -2.38291 8.83973
rtibia 34.4963 -0 0
rfoot -14.6002 -14.5111 -0.173627
rtoes -53.5018 0 0
lowerback 5.06505 1.06521 5.99923
upperback 0.945149 1.77329 1.36832
thorax -1.72688 0.856747 -2.05663
lowerneck -6.97158 -0.187499 5.39842
upperneck 0.817686 -0.703539 -0.035769
head 1.42996 -0.316783 -0.936864
lclavicle -9.93923e-16 1.59028e-15 0
lhumerus -40.4268 -26.7689 98.8511
lradius 53.5746 -0 0
lwrist 6.44443 0 0
lhand -24.6199 -4.53035 0.129233
lfingers 7.12502 -0 0
lthumb 1.87797 25.3962 0.121304
rclavicle -9.93923e-16 1.59028e-15 0
rhumerus -48.3719 -2.10769 -88.4624
rradius 66.9388 -0 0
rwrist 12.2292 0 0
rhand -29.054 -25.7018 0.0722113
rfingers 7.12502 -0 0
rthumb -2.40318 -55.6294 0.0666901
445
root 1.47233 15.2907 -8.92006 5.69683 10.8222 -14.5352
lfemur -51.9289 20.773 -1.00728
ltibia 64.2689 -0 0
lfoot -21.2593 -5.87908 -0.0125158
ltoes -6.46204 0 0
rfemur -10.8402 -4.13497 9.52254
rtibia 34.8442 -0 0
rfoot -14.4182 -15.2794 -0.177663
rtoes -52.7824 0 0
lowerback 5.00671 1.10637 6.05512
upperback 0.902691 1.82968 1.41003
thorax -1.73441 0.883987 -2.0479
lowerneck -6.98535 -0.395048 5.18643
upperneck 0.567374 -0.957939 -0.0102693
head 1.34227 -0.450164 -0.900086
lclavicle -9.93923e-16 1.59028e-15 0
lhumerus -40.3735 -26.3907 99.0172
lradius 53.6958 -0 0
lwrist 6.16278 0 0
lhand -25.321 -4.98878 0.108278
lfingers 7.12502 -0 0
lthumb 1.20106 24.9521 0.10176
rclavicle -9.93923e-16 1.59028e-15 0
rhumerus -48.2282 -1.9981 -88.3607
rradius 66.6808 -0 0
rwrist 12.1483 0 0
rhand -28.3444 -25.258 0.0573427
rfingers 7.12502 -0 0
rthumb -1.71808 -55.1998 0.0529072
446
root 1.45198 15.3026 -8.87292 5.72308 12.5219 -14.6371
lfemur -53.0256 21.6054 -2.00023
ltibia 64.2802 -0 0
lfoot -20.5772 -5.71549 -0.00582034
ltoes -5.2443 0 0
rfemur -10.4256 -5.69986 10.1423
rtibia 35.1959 -0 0
rfoot -14.0392 -15.9443 -0.165246
rtoes -52.1041 0 0
lowerback 4.93061 1.13848 6.10002
upperback 0.855511 1.87213 1.45116
thorax -1.7379 0.90443 -2.03278
lowerneck -7.00464 -0.604164 4.98075
upperneck 0.35449 -1.21587 0.0171499
head 1.26833 -0.584525 -0.864749
lclavicle -9.93923e-16 1.59028e-15 0
lhumerus -40.3589 -26.0425 99.2011
lradius 53.7981 -0 0
lwrist 5.88704 0 0
lhand -25.9353 -5.43637 0.0829164
lfingers 7.12502 -0 0
lthumb 0.607929 24.5174 0.0780475
rclavicle -9.93923e-16 1.59028e-15 0
rhumerus -48.1367 -1.9084 -88.229
rradius 66.4255 -0 0
rwrist 12.0698 0 0
rhand -27.7206 -24.8848 0.0398141
rfingers 7.12502 -0 0
rthumb -1.11572 -54.8393 0.0366531
447
root 1.44142 15.3173 -8.82351 5.729 14.2345 -14.7137
lfemur -53.9935 22.2642 -2.98848
ltibia 64.2389 -0 0
lfoot -19.9879 -5.56049 -0.00175728
ltoes -4.07467 0 0
rfemur -10.0176 -7.01623 10.6827
rtibia 35.5314 -0 0
rfoot -13.4404 -16.4854 -0.132731
rtoes -51.5176 0 0
lowerback 4.83376 1.15841 6.13381
upperback 0.802836 1.89625 1.49261
thorax -1.73671 0.91591 -2.00997
lowerneck -7.03052 -0.814598 4.78345
upperneck 0.186603 -1.47736 0.0471344
head 1.21084 -0.719721 -0.831091
lclavicle -9.93923e-16 1.59028e-15 0
lhumerus -40.3884 -25.7374 99.4051
lradius 53.8793 -0 0
lwrist 5.61765 0 0
lhand -26.4416 -5.86802 0.0549502
lfingers 7.12502 -0 0
lthumb 0.119145 24.0967 0.0518251
rclavicle -9.93923e-16 1.59028e-15 0
rhumerus -48.1093 -1.84718 -88.0634
rradius 66.1761 -0 0
rwrist 11.9958 0 0
rhand -27.2064 -24.6024 0.0224668
rfingers 7.12502 -0 0
rthumb -0.619209 -54.5677 0.0205933
448
root 1.44138 15.3348 -8.77142 5.71215 15.9621 -14.7648
lfemur -54.7999 22.7261 -3.94639
ltibia 64.1415 -0 0
lfoot -19.5136 -5.42313 1.27323e-05
ltoes -2.9758 0 0
rfemur -9.59857 -8.02277 11.1268
rtibia 35.8305 -0 0
rfoot -12.5989 -16.8822 -0.0777704
rtoes -51.0736 0 0
lowerback 4.71315 1.16301 6.15635
upperback 0.743891 1.89766 1.53533
thorax -1.73021 0.916259 -1.97814
lowerneck -7.06406 -1.0261 4.5966
upperneck 0.0712774 -1.74249 0.0802532
head 1.17248 -0.855605 -0.799363
lclavicle -9.93923e-16 1.59028e-15 0
lhumerus -40.4675 -25.4886 99.6319
lradius 53.9369 -0 0
lwrist 5.35506 0 0
lhand -26.8185 -6.27866 0.0265167
lfingers 7.12502 -0 0
lthumb -0.244771 23.6947 0.02507
rclavicle -9.93923e-16 1.59028e-15 0
rhumerus -48.1577 -1.8229 -87.8597
rradius 65.936 -0 0
rwrist 11.9283 0 0
rhand -26.8257 -24.4312 0.00829144
rfingers 7.12502 -0 0
rthumb -0.251652 -54.405 0.00753039
449
root 1.45263 15.3551 -8.71627 5.67006 17.7071 -14.7905
lfemur -55.4108 22.9688 -4.84807
ltibia 63.9848 0 0
lfoot -19.1763 -5.31246 0
ltoes -1.97034 0 0
rfemur -9.15076 -8.65814 11.4583
rtibia 36.0731 0 0
rfoot -11.4916 -17.1135 0
rtoes -50.8228 0 0
lowerback 4.5658 1.14909 6.16757
upperback 0.67789 1.87199 1.58027
thorax -1.71777 0.903305 -1.93599
lowerneck -7.10638 -1.23843 4.4223
upperneck 0.016077 -2.01132 0.116996
head 1.15595 -0.992036 -0.769832
lclavicle 6.44062e-14 -3.81667e-14 0
lhumerus -40.602 -25.309 99.8841
lradius 53.9686 0 0
lwrist 5.0997 0 0
lhand -27.0448 -6.66326 0
lfingers 7.12502 0 0
lthumb -0.463321 23.316 0
rclavicle 6.44062e-14 -3.81667e-14 0
rhumerus -48.294 -1.84376 -87.6136
rradius 65.7085 0 0
rwrist 11.8692 0 0
rhand -26.6025 -24.3915 0
rfingers 7.12502 0 0
rthumb -0.0361369 -774.371 0
450
root 1.47764 15.3801 -8.65745 5.60579 19.4867 -14.7875
lfemur -55.8357 23.0282 -5.74783
ltibia 63.7528 -0 0
lfoot -18.9559 -5.20295 -0.00105843
ltoes -0.992498 0 0
rfemur -8.6366 -8.97099 11.7074
rtibia 36.2564 -0 0
rfoot -9.99304 -17.2008 0.0970351
rtoes -50.6906 0 0
lowerback 4.37863 1.11871 6.16856
upperback 0.600493 1.82123 1.6285
thorax -1.69663 0.878064 -1.88321
lowerneck -7.16001 -1.45506 4.2587
upperneck 0.0234874 -2.2884 0.153545
head 1.16234 -1.1313 -0.743518
lclavicle 6.44062e-14 -3.81667e-14 0
lhumerus -40.8065 -25.1693 100.168
lradius 53.9604 -0 0
lwrist 4.84063 0 0
lhand -27.156 -7.05577 -0.026188
lfingers 7.12502 -0 0
lthumb -0.57061 22.929 -0.0245028
rclavicle 6.44062e-14 -3.81667e-14 0
rhumerus -48.5344 -1.91724 -87.2956
rradius 65.4772 -0 0
rwrist 11.7999 0 0
rhand -26.535 -24.4872 -0.00123489
rfingers 7.12502 -0 0
rthumb 0.0290272 -54.4697 -0.000881268
451
root 1.51737 15.4111 -8.59495 5.52594 21.3109 -14.7543
lfemur -56.1122 22.9609 -6.70683
ltibia 63.4376 -0 0
lfoot -18.8119 -5.06545 -0.0027237
ltoes 0.0321423 -0 0
rfemur -8.04371 -9.06737 11.9186
rtibia 36.4016 -0 0
rfoot -8.0378 -17.1819 0.208044
rtoes -50.5636 0 0
lowerback 4.14553 1.07698 6.16034
upperback 0.50939 1.7519 1.67978
thorax -1.66551 0.843774 -1.82108
lowerneck -7.22559 -1.67886 4.10213
upperneck 0.0866068 -2.57705 0.186012
head 1.18935 -1.27527 -0.720963
lclavicle 6.44062e-14 -3.81667e-14 0
lhumerus -41.0851 -25.0324 100.485
lradius 53.9046 -0 0
lwrist 4.56929 0 0
lhand -27.2025 -7.48698 -0.054472
lfingers 7.12502 -0 0
lthumb -0.615321 22.505 -0.0504186
rclavicle 6.44062e-14 -3.81667e-14 0
rhumerus -48.8775 -2.03804 -86.8888
rradius 65.2264 -0 0
rwrist 11.7041 0 0
rhand -26.5942 -24.6974 0.00353334
rfingers 7.12502 -0 0
rthumb -0.028211 -54.6811 0.00390697
452
root 1.57028 15.4475 -8.5293 5.43324 23.1709 -14.6934
lfemur -56.2487 22.7772 -7.71094
ltibia 63.0482 -0 0
lfoot -18.7362 -4.90357 -0.00481781
ltoes 1.09388 -0 0
rfemur -7.39353 -8.97172 12.0973
rtibia 36.5247 -0 0
rfoot -5.69279 -17.0606 0.327189
rtoes -50.4346 0 0
lowerback 3.87392 1.0253 6.14269
upperback 0.406838 1.66646 1.73307
thorax -1.626 0.801592 -1.75071
lowerneck -7.30136 -1.90871 3.9519
upperneck 0.198917 -2.87548 0.214747
head 1.2346 -1.42317 -0.701715
lclavicle 6.44062e-14 -3.81667e-14 0
lhumerus -41.4276 -24.8995 100.831
lradius 53.8087 -0 0
lwrist 4.28975 0 0
lhand -27.1858 -7.94713 -0.0835045
lfingers 7.12502 -0 0
lthumb -0.598849 22.0532 -0.0766102
rclavicle 6.44062e-14 -3.81667e-14 0
rhumerus -49.3089 -2.19487 -86.4071
rradius 64.9602 -0 0
rwrist 11.588 0 0
rhand -26.7634 -25.0056 0.0127162
rfingers 7.12502 -0 0
rthumb -0.19159 -54.9888 0.0128444
453
root 1.63484 15.4883 -8.46104 5.33036 25.0582 -14.6069
lfemur -56.2542 22.4875 -8.74703
ltibia 62.5932 -0 0
lfoot -18.7206 -4.72092 -0.00710378
ltoes 2.18299 -0 0
rfemur -6.70793 -8.70833 12.2492
rtibia 36.6415 -0 0
rfoot -3.0249 -16.8408 0.447067
rtoes -50.2962 0 0
lowerback 3.57124 0.965079 6.11541
upperback 0.2951 1.56734 1.78736
thorax -1.57971 0.752677 -1.6732
lowerneck -7.38558 -2.14344 3.80733
upperneck 0.3539 -3.18187 0.240148
head 1.29568 -1.57419 -0.685315
lclavicle 6.44062e-14 -3.81667e-14 0
lhumerus -41.8241 -24.7716 101.199
lradius 53.6799 -0 0
lwrist 4.00607 0 0
lhand -27.1072 -8.42647 -0.111859
lfingers 7.12502 -0 0
lthumb -0.522617 21.5827 -0.101869
rclavicle 6.44062e-14 -3.81667e-14 0
rhumerus -49.8141 -2.37654 -85.8649
rradius 64.6828 -0 0
rwrist 11.4575 0 0
rhand -27.0256 -25.3955 0.0243745
rfingers 7.12502 -0 0
rthumb -0.444851 -55.3767 0.0240806
454
root 1.70949 15.5329 -8.39068 5.21988 26.9644 -14.4969
lfemur -56.1382 22.102 -9.80282
ltibia 62.0815 -0 0
lfoot -18.7571 -4.52109 -0.00932185
ltoes 3.28979 -0 0
rfemur -6.00909 -8.30143 12.3797
rtibia 36.7678 -0 0
rfoot -0.101032 -16.5276 0.559463
rtoes -50.1411 0 0
lowerback 3.24492 0.897682 6.07825
upperback 0.176446 1.45698 1.8416
thorax -1.52822 0.698189 -1.58965
lowerneck -7.47651 -2.38189 3.66773
upperneck 0.545033 -3.49442 0.262672
head 1.37021 -1.72756 -0.671291
lclavicle 6.44062e-14 -3.81667e-14 0
lhumerus -42.2647 -24.6502 101.586
lradius 53.5256 -0 0
lwrist 3.7223 0 0
lhand -26.9683 -8.91525 -0.138087
lfingers 7.12502 -0 0
lthumb -0.388069 21.1027 -0.124964
rclavicle 6.44062e-14 -3.81667e-14 0
rhumerus -50.3785 -2.57213 -85.2766
rradius 64.3982 -0 0
rwrist 11.3187 0 0
rhand -27.364 -25.8503 0.0364961
rfingers 7.12502 -0 0
rthumb -0.771726 -55.8284 0.0356997
